<?xml version="1.0" encoding="UTF-8"?>
<svg id="Layer_1" data-name="Layer 1" xmlns="http://www.w3.org/2000/svg" xmlns:xlink="http://www.w3.org/1999/xlink" viewBox="0 0 100 100">
  <defs>
    <style>
      .cls-1 {
        fill: url(#linear-gradient-2);
      }

      .cls-2 {
        fill: url(#linear-gradient-6);
      }

      .cls-3 {
        fill: url(#linear-gradient-5);
      }

      .cls-4 {
        fill: url(#linear-gradient-7);
      }

      .cls-5 {
        fill: url(#linear-gradient-3);
      }

      .cls-6 {
        fill: url(#linear-gradient);
      }

      .cls-7 {
        fill: #231f20;
      }

      .cls-8 {
        fill: url(#linear-gradient-4);
      }
    </style>
    <linearGradient id="linear-gradient" x1="87" y1="12.8" x2="27.07" y2="73.06" gradientUnits="userSpaceOnUse">
      <stop offset="0" stop-color="#f5c230"/>
      <stop offset="0" stop-color="#ecc440"/>
      <stop offset=".32" stop-color="#fffa8a"/>
      <stop offset=".68" stop-color="#ddac17"/>
      <stop offset="1" stop-color="#ffff95"/>
    </linearGradient>
    <linearGradient id="linear-gradient-2" x1="83.54" y1="16.28" x2="29.21" y2="70.9" xlink:href="#linear-gradient"/>
    <linearGradient id="linear-gradient-3" x1="56.39" y1="31.29" x2="56.34" y2="31.34" xlink:href="#linear-gradient"/>
    <linearGradient id="linear-gradient-4" x1="62.05" y1="17.46" x2="30.12" y2="49.56" xlink:href="#linear-gradient"/>
    <linearGradient id="linear-gradient-5" x1="74.24" y1="35.47" x2="41.47" y2="68.42" xlink:href="#linear-gradient"/>
    <linearGradient id="linear-gradient-6" x1="54.13" y1="47.9" x2="39.78" y2="62.33" xlink:href="#linear-gradient"/>
    <linearGradient id="linear-gradient-7" x1="37.43" y1="62.14" x2="33.26" y2="66.33" xlink:href="#linear-gradient"/>
  </defs>
  <rect class="cls-7" width="100" height="100"/>
  <g>
    <g>
      <path class="cls-6" d="M50,10C27.94,10,10,27.94,10,50s17.94,40,40,40,40-17.94,40-40S72.06,10,50,10Zm0,78.6c-21.28,0-38.6-17.31-38.6-38.6S28.72,11.4,50,11.4s38.6,17.31,38.6,38.6-17.31,38.6-38.6,38.6Z"/>
      <path class="cls-1" d="M50,13.74C30.01,13.74,13.74,30.01,13.74,50s16.27,36.26,36.26,36.26,36.26-16.27,36.26-36.26S69.99,13.74,50,13.74Zm0,71.94c-19.67,0-35.68-16.01-35.68-35.68S30.33,14.32,50,14.32s35.68,16.01,35.68,35.68-16.01,35.68-35.68,35.68Z"/>
    </g>
    <path class="cls-5" d="M56.09,31.01l.53,.63c-.1-.13-.21-.26-.31-.39-.07-.08-.14-.16-.22-.25Z"/>
    <path class="cls-8" d="M55.79,23.93c-1.08-.19-2.16-.33-3.25-.39-2.62-.15-5.26,.08-7.82,.66-2.55,.59-5.02,1.53-7.29,2.84-2.26,1.3-4.32,2.95-6.03,4.92-.41,.47-.79,.95-1.16,1.45-4.57,6.26-5.36,17.12,.8,22.66,.48,.44,5.87,3.8,6.04,2.81,.15-.93,.19-1.85,.26-2.79,.03-.43,.18-.94-.04-1.34-.09-.17-.26-.33-.52-.5-8.96-5.61-3.08-17.83,3.54-23.04,0,0,0,0,0,0,2.66-2.52,5.77-4.16,9.69-4.95s6.15,.12,6.48,1.46c.33,1.34-.39,3.27-.39,3.27h0c.07,.09,.15,.17,.22,.25,.11,.12,.21,.25,.31,.39,0,0,1.6-4.28,4.31-5.91-.09-.08-.18-.16-.27-.23-.11-.09-.24-.17-.36-.25l-.74,.37s-.74-1.11-3.76-1.69Z"/>
    <g>
      <path class="cls-3" d="M69.79,41.33c-2.81-1.19-5.95-1.07-8.94-1.34-.2-.02-.4,.04-.75,.07,.62,1.59,1.31,2.3,2.64,2.73,1.44,.47,3.3,.65,4.52,1.59,2.83,2.16,1.04,6.55-.86,8.67-2.06,2.29-5.15,3.84-8.25,3.94-.14,0-.29,0-.39-.08-.17-.14-.14-.41-.09-.63,.66-2.9,1.44-5.77,1.91-8.7,.04-.27,.3-2.95,.5-2.99-1.22,.17-2.37,.5-3.54,.85-.6,.17-1.82,.62-2.3,0-.21-.27-.04-1.71-.02-2.08,.06-1.98,1.21-2.4,2.9-2.89,.21-.06,.43-.17,.6-.32v-.8c-3.68-.04-7.41,.13-11.04,.28v1.39c.33,.09,.69,.13,.97,.21,.72,.2,1.31,.38,1.51,1.15,.24,.97,.18,2.12,.13,3.11-.15,3.1-.75,7.62-3.83,9.22-.54,.28-1.12,.49-1.66,.73-.43,.82-.77,1.61-.18,2.43,1,.38,1.79-.39,2.89-.43-.59,1.23-1.11,2.31-1.64,3.41,.42,.51,.81,.98,1.2,1.45,.03,.03,.1,.03,.27,.08,3.78-3.56,5.16-8.37,6.47-13.29,.37-.02,.69-.03,1.04-.05,.32-.02-.39,4.29-.46,4.68-.54,3.01-1.71,5.88-2.52,8.82-.7,2.52-1.42,5.05-2.41,7.48-.08,.19-.17,.37-.27,.55-.7,1.16-2.56,3.09-7.18,3.04-.02,0,.13,.24,.14,.24,.22,.27,.62,.4,.93,.5,1.68,.53,3.42,.43,5.15,.39,3.25-.08,6.49-.1,9.73-.11,1.21,0,2.25-.31,2.99-1.32,.18-.24,.35-.52,.38-.82,0-.04-.06-.67-.1-.65-1,.41-1.97,.62-3.06,.6-.53,0-1.06-.05-1.58-.12-.19-.02-1.4-.05-1.48-.2-.08-.15,1.79-8.63,2.03-9.44,.2-.69,.36-2.22,1.14-2.51,.63-.24,1.5-.03,2.17-.05,6.05-.19,13.74-3.96,14.58-10.62,.41-3.29-1.09-6.83-4.25-8.17Z"/>
      <path class="cls-2" d="M39.13,62.57c.72,2.41,2.41,5.02,5.18,5.13,.57,.02,1.46-.24,1.65-.87,.7-2.36-1.9-3.67-2.9-5.51-.63-1.17-.81-2.51-.7-3.81,.27-3.27,2.01-6.47,4.12-8.93,.26-.3,1.17-.99,1.1-1.43-.13-.76-.22-1.3-.31-1.82-.09-.53-1.94,.81-2.05,.89-4.72,3.65-7.84,10.43-6.08,16.35,0,0,0,0,0,0Z"/>
      <path class="cls-4" d="M37.43,64.14c-.61-.5-1.04-1.13-1.62-1.65-.99-.89-2.74-1.34-3.87-.64,0,0,0,0,0,0-1.86,1.15-.71,3.56,.69,4.49,1.75,1.15,4.21,1.73,6.01,.36,.14-.1,1.26-.96,1.06-1.09-.77-.49-1.56-.89-2.27-1.47Z"/>
    </g>
  </g>
</svg>